<?xml version="1.0" encoding="utf-8"?>
<!-- Generator: Adobe Illustrator 17.1.0, SVG Export Plug-In . SVG Version: 6.00 Build 0)  -->
<!DOCTYPE svg PUBLIC "-//W3C//DTD SVG 1.1//EN" "http://www.w3.org/Graphics/SVG/1.1/DTD/svg11.dtd">
<svg version="1.1" id="Layer_1" xmlns="http://www.w3.org/2000/svg" xmlns:xlink="http://www.w3.org/1999/xlink" x="0px" y="0px"
	 viewBox="0 0 485.3 196.5" enable-background="new 0 0 485.3 196.5" xml:space="preserve">
<g>
	<path fill="#38B4B0" d="M184.9,150.9c-4,0-7.5-0.5-10.5-1.5c-3-1-5.6-2.4-7.5-4.2c-2-1.8-3.6-4-4.8-6.6c-1.2-2.6-2.1-5.5-2.6-8.5
		c-0.5-3-0.8-6.4-0.8-10.2V87.8c0-4,0.3-7.6,0.8-10.6c0.5-3.1,1.4-6,2.6-8.6c1.2-2.6,2.8-4.8,4.8-6.5c2-1.7,4.5-3,7.5-4
		c3-1,6.5-1.4,10.5-1.4c4.6,0,8.5,0.6,11.8,1.8c3.3,1.2,5.8,3,7.7,5.4c1.9,2.4,3.3,5.1,4.1,8.3c0.9,3.2,1.3,6.9,1.3,11.1v7.9h-16.2
		v-7.8c0-4.6-0.2-7.7-0.7-9.3c-1-3.1-3.3-4.8-7.1-5c-0.3,0-0.6,0-0.9,0c-1.4,0-2.6,0.2-3.7,0.5c-1.1,0.3-1.9,0.9-2.6,1.6
		c-0.7,0.7-1.2,1.5-1.6,2.3c-0.4,0.8-0.7,1.9-0.9,3.2c-0.2,1.3-0.3,2.5-0.4,3.6s-0.1,2.5-0.1,4.2v39c0,5.4,0.7,9.3,2,11.6
		c1.4,2.3,3.8,3.4,7.3,3.4c1.2,0,2.2-0.1,3.1-0.4c0.9-0.3,1.7-0.6,2.3-1.1c0.6-0.4,1.1-1,1.6-1.8c0.4-0.8,0.8-1.5,1-2.2
		c0.2-0.7,0.4-1.6,0.5-2.9c0.1-1.2,0.2-2.3,0.2-3.1c0-0.9,0-2,0-3.5v-8.2h16.2v7.6c0,3.4-0.2,6.5-0.7,9.3c-0.5,2.7-1.3,5.3-2.5,7.7
		c-1.2,2.4-2.7,4.4-4.5,6c-1.9,1.6-4.2,2.8-7.1,3.8C192.1,150.5,188.8,150.9,184.9,150.9z"/>
	<path fill="#38B4B0" d="M224.9,149.8V57.6h16.8v80.6h22.1v11.6H224.9z"/>
	<path fill="#38B4B0" d="M276.6,149.8V57.6h16.6v92.2H276.6z"/>
	<path fill="#38B4B0" d="M310.7,149.8V57.6h11.6l22.6,52.2V57.6h13.9v92.2h-11l-22.8-54.9v54.9H310.7z"/>
	<path fill="#38B4B0" d="M376.4,149.8V57.6H393v92.2H376.4z"/>
	<path fill="#38B4B0" d="M435.3,150.9c-4,0-7.5-0.5-10.5-1.5s-5.6-2.4-7.5-4.2c-2-1.8-3.6-4-4.8-6.6c-1.2-2.6-2.1-5.5-2.6-8.5
		c-0.5-3-0.8-6.4-0.8-10.2V87.8c0-4,0.3-7.6,0.8-10.6c0.5-3.1,1.4-6,2.6-8.6c1.2-2.6,2.8-4.8,4.8-6.5c2-1.7,4.5-3,7.5-4
		c3-1,6.5-1.4,10.5-1.4c4.6,0,8.5,0.6,11.8,1.8c3.3,1.2,5.8,3,7.7,5.4c1.9,2.4,3.3,5.1,4.1,8.3c0.9,3.2,1.3,6.9,1.3,11.1v7.9h-16.2
		v-7.8c0-4.6-0.2-7.7-0.7-9.3c-1-3.1-3.3-4.8-7.1-5c-0.3,0-0.6,0-0.9,0c-1.4,0-2.6,0.2-3.7,0.5c-1.1,0.3-1.9,0.9-2.6,1.6
		c-0.7,0.7-1.2,1.5-1.6,2.3c-0.4,0.8-0.7,1.9-0.9,3.2c-0.2,1.3-0.3,2.5-0.4,3.6s-0.1,2.5-0.1,4.2v39c0,5.4,0.7,9.3,2,11.6
		c1.4,2.3,3.8,3.4,7.3,3.4c1.2,0,2.2-0.1,3.1-0.4c0.9-0.3,1.7-0.6,2.3-1.1c0.6-0.4,1.1-1,1.6-1.8c0.4-0.8,0.8-1.5,1-2.2
		c0.2-0.7,0.4-1.6,0.5-2.9s0.2-2.3,0.2-3.1c0-0.9,0-2,0-3.5v-8.2h16.2v7.6c0,3.4-0.2,6.5-0.7,9.3c-0.5,2.7-1.3,5.3-2.5,7.7
		c-1.2,2.4-2.7,4.4-4.5,6c-1.9,1.6-4.2,2.8-7.1,3.8C442.5,150.5,439.2,150.9,435.3,150.9z"/>
</g>
<g>
	<path fill="#218984" d="M95.3,129.9v-13.1c4.7-1.3,8.5-5.5,8.8-10.5l0.7-10.4c0.2-3-0.8-5.8-2.8-7.9c-1.8-1.9-4.1-3-6.7-3.2V66.6
		c0-4-3.3-7.2-7.2-7.2H88V36.5c0-3.5-2.9-6.4-6.4-6.4H47c-3.5,0-6.4,2.9-6.4,6.4v22.9h-0.1c-4,0-7.2,3.3-7.2,7.2v18.1
		c-2.6,0.2-4.9,1.3-6.7,3.2c-2,2.1-3,4.9-2.8,7.9l0.7,10.4c0.3,5,4.1,9.3,8.8,10.5v13.1c-3.1-0.3-6.5-1.1-10.3-2.9
		c3.5,3.2,6.9,5.5,10.3,7.2v25c0,4,3.3,7.2,7.2,7.2h47.7c4,0,7.2-3.2,7.2-7.2v-25c3.3-1.7,6.8-4,10.3-7.2
		C101.8,128.7,98.4,129.6,95.3,129.9z M54.5,43.2c0-0.6,0.5-1.1,1.1-1.1h6v-6c0-0.6,0.5-1.1,1.1-1.1h3.2c0.6,0,1.1,0.5,1.1,1.1v6h6
		c0.6,0,1.1,0.5,1.1,1.1v3.2c0,0.6-0.5,1.1-1.1,1.1h-6v6c0,0.6-0.5,1.1-1.1,1.1h-3.2c-0.6,0-1.1-0.5-1.1-1.1v-6h-6
		c-0.6,0-1.1-0.5-1.1-1.1V43.2z M72.8,65.5c0,0.5-0.4,0.9-0.9,0.9H56.6c-0.5,0-0.9-0.4-0.9-0.9c0-0.5,0.4-0.9,0.9-0.9h15.2
		C72.4,64.6,72.8,65,72.8,65.5z M38.2,70.9h52.1v13.8H77c-3,0-5.7,1.2-7.7,3.3c-1.8,1.9-2.7,4.3-2.8,7H62c-0.1-2.6-1-5.1-2.8-7
		c-2-2.1-4.7-3.3-7.7-3.3H38.2V70.9z M78.8,117.2h11.5v12.6c-13.2-1.6-19.3-14.2-26-8.5c-6.7-5.7-12.8,6.8-26,8.5v-12.6h11.5
		c6,0,11.3-4.9,11.7-10.9l0.4-6.5h5l0.4,6.5C67.6,112.3,72.8,117.2,78.8,117.2z M28.3,106l-0.7-10.4c-0.1-1.9,0.5-3.6,1.7-5
		c1.2-1.3,3-2.1,4.8-2.1h17.3c1.9,0,3.6,0.7,4.8,2.1c1.3,1.3,1.9,3.1,1.7,5L57.5,106c-0.3,4-3.7,7.3-7.7,7.3H36.1
		C32,113.3,28.6,110,28.3,106z M64.3,162.8c-2,0-3.6-1.6-3.6-3.6c0-2,1.6-3.6,3.6-3.6c2,0,3.6,1.6,3.6,3.6
		C67.9,161.1,66.3,162.8,64.3,162.8z M90.3,153H38.2v-16.8c11.7,3.7,21.4-0.4,26.1-5c4.7,4.6,14.4,8.7,26,5L90.3,153z M92.5,113.3
		H78.9c-4,0-7.5-3.3-7.8-7.3l-0.7-10.4c-0.1-1.9,0.5-3.6,1.7-5c1.2-1.3,3-2.1,4.8-2.1h17.3c1.9,0,3.6,0.7,4.8,2.1
		c1.2,1.3,1.9,3.1,1.7,5l-0.7,10.4C100,110,96.5,113.3,92.5,113.3z"/>
	<path fill="#218984" d="M126,149.8V57.6h16.6v92.2H126z"/>
</g>
</svg>
